<?xml version="1.0" standalone="no"?>
<!DOCTYPE svg PUBLIC "-//W3C//DTD SVG 20010904//EN"
 "http://www.w3.org/TR/2001/REC-SVG-20010904/DTD/svg10.dtd">
<svg version="1.0" xmlns="http://www.w3.org/2000/svg"
 width="512.000000pt" height="512.000000pt" viewBox="0 0 512.000000 512.000000"
 preserveAspectRatio="xMidYMid meet">

<g transform="translate(0.000000,512.000000) scale(0.100000,-0.100000)"
fill="#000000" stroke="none">
<path d="M267 4796 c-45 -17 -82 -48 -105 -91 -15 -27 -17 -123 -20 -1053 -2
-735 1 -1034 9 -1064 21 -79 60 -105 304 -201 815 -319 1605 -627 1612 -627 3
0 40 -22 82 -49 299 -191 497 -190 816 4 47 29 369 159 990 401 672 262 929
367 953 388 65 57 62 -6 62 1133 0 850 -2 1039 -14 1066 -17 43 -67 84 -117
97 -43 12 -52 10 -142 -22 l-57 -21 72 -54 c40 -30 76 -60 80 -68 10 -17 6
-1991 -4 -2000 -8 -8 -1839 -725 -1851 -725 -5 0 -27 13 -50 28 -90 61 -200
92 -326 92 -131 0 -231 -29 -346 -100 l-35 -22 -930 363 -930 363 0 1002 0
1002 79 59 79 59 -56 22 c-78 31 -111 34 -155 18z"/>
<path d="M11 2307 c20 -166 125 -326 272 -411 26 -15 190 -84 365 -153 174
-68 557 -218 850 -333 293 -115 540 -214 550 -219 15 -9 14 -11 -8 -19 -14 -6
-466 -182 -1005 -392 -539 -210 -992 -386 -1006 -391 -24 -9 -25 -13 -19 -52
11 -65 26 -93 74 -142 53 -53 133 -81 205 -72 26 3 532 195 1141 433 602 235
1105 429 1117 431 13 3 444 -161 1125 -428 1180 -463 1164 -457 1267 -429 54
14 122 76 153 138 22 46 23 55 23 327 0 273 -1 281 -24 332 -29 66 -102 134
-166 158 -289 105 -419 180 -584 339 -90 87 -176 192 -164 199 5 3 143 57 308
122 165 64 321 128 346 142 146 79 257 244 277 411 7 61 6 69 -7 64 -9 -3
-583 -225 -1275 -494 l-1260 -489 -1255 492 c-691 270 -1268 493 -1282 496
l-26 4 8 -64z"/>
</g>
</svg>
